<svg xmlns="http://www.w3.org/2000/svg" width="129.54" height="35" viewBox="0 0 129.54 35"><rect class="svg__rect" x="0" y="0" width="68.3" height="35" fill="#C13B3A"/><rect class="svg__rect" x="66.3" y="0" width="63.239999999999995" height="35" fill="#EA4560"/><path class="svg__text" d="M16.51 22L13.46 13.47L15.08 13.47L17.22 20.14L19.39 13.47L21.02 13.47L17.95 22L16.51 22ZM26.53 22L25.06 22L25.06 13.47L26.53 13.47L26.53 22ZM30.91 19.42L30.91 19.42L32.39 19.42Q32.39 20.15 32.87 20.55Q33.35 20.95 34.25 20.95L34.25 20.95Q35.02 20.95 35.41 20.63Q35.80 20.32 35.80 19.80L35.80 19.80Q35.80 19.24 35.41 18.94Q35.01 18.63 33.98 18.32Q32.95 18.01 32.34 17.63L32.34 17.63Q31.17 16.90 31.17 15.72L31.17 15.72Q31.17 14.69 32.02 14.02Q32.86 13.35 34.20 13.35L34.20 13.35Q35.09 13.35 35.79 13.68Q36.48 14.01 36.88 14.61Q37.28 15.22 37.28 15.96L37.28 15.96L35.80 15.96Q35.80 15.29 35.38 14.91Q34.97 14.54 34.19 14.54L34.19 14.54Q33.46 14.54 33.06 14.85Q32.66 15.16 32.66 15.71L32.66 15.71Q32.66 16.18 33.09 16.50Q33.52 16.81 34.52 17.10Q35.52 17.40 36.12 17.78Q36.72 18.16 37.00 18.65Q37.29 19.13 37.29 19.79L37.29 19.79Q37.29 20.86 36.47 21.49Q35.65 22.12 34.25 22.12L34.25 22.12Q33.32 22.12 32.55 21.77Q31.77 21.43 31.34 20.83Q30.91 20.22 30.91 19.42ZM43.14 22L41.66 22L41.66 13.47L43.14 13.47L43.14 22ZM49.63 14.66L46.99 14.66L46.99 13.47L53.76 13.47L53.76 14.66L51.10 14.66L51.10 22L49.63 22L49.63 14.66Z" fill="#FFFFFF"/><path class="svg__text" d="M79.90 21.24L79.90 21.24L80.68 19.49Q81.24 19.86 81.99 20.09Q82.73 20.32 83.45 20.32L83.45 20.32Q84.82 20.32 84.82 19.64L84.82 19.64Q84.82 19.28 84.43 19.11Q84.04 18.93 83.18 18.74L83.18 18.74Q82.23 18.53 81.59 18.30Q80.96 18.06 80.50 17.55Q80.05 17.03 80.05 16.16L80.05 16.16Q80.05 15.39 80.47 14.77Q80.89 14.15 81.72 13.79Q82.56 13.43 83.76 13.43L83.76 13.43Q84.59 13.43 85.40 13.62Q86.20 13.80 86.82 14.17L86.82 14.17L86.08 15.93Q84.88 15.28 83.75 15.28L83.75 15.28Q83.04 15.28 82.72 15.49Q82.40 15.70 82.40 16.04L82.40 16.04Q82.40 16.37 82.78 16.54Q83.17 16.71 84.02 16.89L84.02 16.89Q84.98 17.10 85.61 17.33Q86.24 17.56 86.70 18.07Q87.16 18.58 87.16 19.46L87.16 19.46Q87.16 20.21 86.74 20.83Q86.32 21.44 85.48 21.80Q84.64 22.17 83.44 22.17L83.44 22.17Q82.42 22.17 81.46 21.92Q80.50 21.67 79.90 21.24ZM94.12 22L91.74 22L91.74 13.60L94.12 13.60L94.12 22ZM101.08 15.48L98.50 15.48L98.50 13.60L106.02 13.60L106.02 15.48L103.46 15.48L103.46 22L101.08 22L101.08 15.48ZM117.14 22L110.39 22L110.39 13.60L116.99 13.60L116.99 15.44L112.75 15.44L112.75 16.85L116.48 16.85L116.48 18.63L112.75 18.63L112.75 20.17L117.14 20.17L117.14 22Z" fill="#FFFFFF" x="79.3"/></svg>